<svg xmlns="http://www.w3.org/2000/svg" xmlns:xlink="http://www.w3.org/1999/xlink" width="300" zoomAndPan="magnify" viewBox="0 0 224.87999 74.999997" height="100" preserveAspectRatio="xMidYMid meet" version="1.0"><defs><g/><clipPath id="206e8d99bf"><path d="M 166.101562 20.757812 L 215.574219 20.757812 L 215.574219 47.742188 L 166.101562 47.742188 Z M 166.101562 20.757812 " clip-rule="nonzero"/></clipPath><clipPath id="85a2364489"><path d="M 7.847656 20.757812 L 56.96875 20.757812 L 56.96875 47.742188 L 7.847656 47.742188 Z M 7.847656 20.757812 " clip-rule="nonzero"/></clipPath></defs><g fill="#ffffff" fill-opacity="1"><g transform="translate(61.442884, 37.433052)"><g><path d="M 14.5 -15.109375 L 8.859375 -15.109375 L 8.859375 0 L 5.84375 0 L 5.84375 -15.109375 L 0.234375 -15.109375 L 0.234375 -17.8125 L 14.5 -17.8125 Z M 14.5 -15.109375 "/></g></g></g><g fill="#ffffff" fill-opacity="1"><g transform="translate(81.761892, 37.433052)"><g><path d="M 13.84375 -4.015625 L 4.859375 -4.015625 L 3.15625 0 L 0.03125 0 L 7.890625 -17.8125 L 10.96875 -17.8125 L 18.75 0 L 15.546875 0 Z M 12.6875 -6.6875 L 9.328125 -14.59375 L 5.984375 -6.6875 Z M 12.6875 -6.6875 "/></g></g></g><g fill="#ffffff" fill-opacity="1"><g transform="translate(106.124316, 37.433052)"><g><path d="M 5.34375 -2.71875 L 13.046875 -2.71875 L 13.046875 0 L 2.34375 0 L 2.34375 -17.8125 L 5.34375 -17.8125 Z M 5.34375 -2.71875 "/></g></g></g><g fill="#ffffff" fill-opacity="1"><g transform="translate(125.298962, 37.433052)"><g><path d="M 15.0625 -15.109375 L 5.34375 -15.109375 L 5.34375 -10.296875 L 14.046875 -10.296875 L 14.046875 -7.609375 L 5.34375 -7.609375 L 5.34375 -2.703125 L 15.359375 -2.703125 L 15.359375 0 L 2.34375 0 L 2.34375 -17.8125 L 15.0625 -17.8125 Z M 15.0625 -15.109375 "/></g></g></g><g fill="#ffffff" fill-opacity="1"><g transform="translate(147.576108, 37.433052)"><g><path d="M 8.1875 -17.9375 C 10.5 -17.9375 12.578125 -17.328125 14.421875 -16.109375 L 13.171875 -13.453125 C 11.359375 -14.554688 9.625 -15.109375 7.96875 -15.109375 C 7.0625 -15.109375 6.347656 -14.945312 5.828125 -14.625 C 5.316406 -14.300781 5.0625 -13.84375 5.0625 -13.25 C 5.0625 -12.65625 5.296875 -12.148438 5.765625 -11.734375 C 6.242188 -11.316406 6.835938 -11.007812 7.546875 -10.8125 C 8.265625 -10.625 9.035156 -10.378906 9.859375 -10.078125 C 10.691406 -9.785156 11.460938 -9.472656 12.171875 -9.140625 C 12.890625 -8.816406 13.484375 -8.300781 13.953125 -7.59375 C 14.421875 -6.882812 14.65625 -6.03125 14.65625 -5.03125 C 14.65625 -3.476562 14.03125 -2.234375 12.78125 -1.296875 C 11.53125 -0.359375 9.914062 0.109375 7.9375 0.109375 C 6.582031 0.109375 5.265625 -0.144531 3.984375 -0.65625 C 2.710938 -1.164062 1.601562 -1.851562 0.65625 -2.71875 L 1.953125 -5.3125 C 2.859375 -4.476562 3.847656 -3.835938 4.921875 -3.390625 C 5.992188 -2.941406 7.015625 -2.71875 7.984375 -2.71875 C 9.035156 -2.71875 9.851562 -2.90625 10.4375 -3.28125 C 11.019531 -3.664062 11.3125 -4.203125 11.3125 -4.890625 C 11.3125 -5.492188 11.070312 -6.003906 10.59375 -6.421875 C 10.125 -6.835938 9.535156 -7.140625 8.828125 -7.328125 C 8.117188 -7.523438 7.347656 -7.765625 6.515625 -8.046875 C 5.679688 -8.328125 4.90625 -8.625 4.1875 -8.9375 C 3.476562 -9.25 2.882812 -9.753906 2.40625 -10.453125 C 1.9375 -11.148438 1.703125 -11.988281 1.703125 -12.96875 C 1.703125 -14.476562 2.296875 -15.679688 3.484375 -16.578125 C 4.671875 -17.484375 6.238281 -17.9375 8.1875 -17.9375 Z M 8.1875 -17.9375 "/></g></g></g><g fill="#ffffff" fill-opacity="1"><g transform="translate(83.312353, 60.183074)"><g><path d="M 3.40625 -1.734375 L 8.3125 -1.734375 L 8.3125 0 L 1.484375 0 L 1.484375 -11.359375 L 3.40625 -11.359375 Z M 3.40625 -1.734375 "/></g></g></g><g fill="#ffffff" fill-opacity="1"><g transform="translate(95.536179, 60.183074)"><g><path d="M 3.40625 0 L 1.484375 0 L 1.484375 -11.359375 L 3.40625 -11.359375 Z M 3.40625 0 "/></g></g></g><g fill="#ffffff" fill-opacity="1"><g transform="translate(103.999274, 60.183074)"><g><path d="M 13.5 0 L 11.71875 0 L 11.703125 -8.484375 L 8.125 -1.1875 L 6.875 -1.1875 L 3.296875 -8.484375 L 3.296875 0 L 1.484375 0 L 1.484375 -11.359375 L 3.765625 -11.359375 L 7.515625 -3.8125 L 11.234375 -11.359375 L 13.5 -11.359375 Z M 13.5 0 "/></g></g></g><g fill="#ffffff" fill-opacity="1"><g transform="translate(122.561222, 60.183074)"><g><path d="M 8.828125 -2.5625 L 3.09375 -2.5625 L 2.015625 0 L 0.015625 0 L 5.03125 -11.359375 L 6.984375 -11.359375 L 11.953125 0 L 9.90625 0 Z M 8.09375 -4.265625 L 5.953125 -9.3125 L 3.8125 -4.265625 Z M 8.09375 -4.265625 "/></g></g></g><path stroke-linecap="butt" transform="matrix(2.255526, 0, 0, 1.133253, 61.442884, 42.891332)" fill="none" stroke-linejoin="miter" d="M -0.000655027 -0.000624009 L 43.536519 -0.000624009 " stroke="#ffffff" stroke-width="1" stroke-opacity="1" stroke-miterlimit="4"/><g clip-path="url(#206e8d99bf)"><path fill="#ffffff" d="M 184.21875 47.742188 C 183.414062 47.742188 182.558594 47.339844 181.746094 46.582031 C 179.476562 44.511719 176.410156 42.132812 172.84375 42.132812 C 172.519531 42.132812 172.191406 42.152344 171.871094 42.1875 C 171.851562 42.191406 170.148438 42.363281 168.292969 43.296875 C 167.980469 43.453125 167.71875 43.695312 167.539062 44 L 167.355469 43.636719 C 166.152344 41.210938 166.769531 38.164062 169.140625 34.828125 C 170.929688 32.308594 173.109375 30.484375 173.132812 30.46875 C 178.886719 25.609375 183.347656 24.953125 186.953125 24.953125 C 188.832031 24.953125 190.660156 25.160156 192.59375 25.378906 C 194.597656 25.609375 196.671875 25.925781 198.882812 25.84375 C 209.394531 25.453125 215.523438 20.757812 215.523438 20.757812 C 210.878906 26.558594 206.277344 30.546875 203.511719 31.160156 C 202.082031 31.511719 200.667969 31.683594 199.191406 31.683594 C 196.226562 31.683594 193.527344 30.980469 190.914062 30.300781 C 188.359375 29.636719 185.945312 29.011719 183.351562 29.011719 C 179.898438 29.011719 176.734375 30.15625 173.390625 32.613281 C 170.816406 34.445312 169.308594 36.253906 168.445312 37.839844 C 170.214844 35.144531 173.097656 33.316406 173.136719 33.292969 C 176.160156 31.222656 179.113281 30.214844 182.164062 30.214844 C 185.007812 30.214844 187.589844 31.042969 190.320312 31.917969 C 193.085938 32.804688 195.945312 33.722656 199.136719 33.722656 C 199.140625 33.722656 199.140625 33.722656 199.140625 33.722656 C 200.621094 33.722656 202.050781 33.53125 203.511719 33.136719 L 203.847656 33.042969 L 203.625 33.316406 C 200.984375 36.515625 198.226562 38.425781 196.242188 38.425781 C 196.058594 38.425781 195.882812 38.40625 195.714844 38.375 C 193.277344 37.96875 190.960938 36.933594 188.722656 35.933594 C 185.855469 34.652344 182.894531 33.328125 179.660156 33.328125 C 177.410156 33.328125 175.222656 33.957031 172.976562 35.253906 C 171.191406 36.320312 169.984375 37.476562 169.171875 38.597656 C 170.730469 36.804688 172.722656 35.878906 172.753906 35.863281 C 174.785156 34.792969 176.757812 34.269531 178.777344 34.269531 C 182.21875 34.269531 185.277344 35.828125 188.238281 37.332031 C 190.660156 38.5625 193.164062 39.839844 195.847656 40.234375 L 196.046875 40.265625 L 195.914062 40.417969 C 194.457031 42.085938 192.878906 43.007812 191.46875 43.007812 C 190.953125 43.007812 190.472656 42.882812 190.039062 42.632812 C 188.996094 42.070312 187.9375 41.40625 186.910156 40.765625 C 183.804688 38.820312 180.59375 36.8125 176.890625 36.8125 C 175.445312 36.8125 174.035156 37.109375 172.585938 37.722656 C 171.105469 38.472656 170.058594 39.355469 169.324219 40.199219 C 170.730469 38.90625 172.363281 38.277344 172.386719 38.269531 C 173.652344 37.796875 174.929688 37.558594 176.179688 37.558594 C 180.070312 37.558594 183.339844 39.804688 186.503906 41.976562 C 187.804688 42.871094 189.035156 43.714844 190.3125 44.417969 L 190.441406 44.488281 L 190.339844 44.59375 C 189.503906 45.476562 188.558594 45.941406 187.609375 45.941406 C 186.890625 45.941406 186.179688 45.667969 185.554688 45.144531 L 185.4375 45.050781 C 182.160156 42.421875 178.773438 39.699219 174.675781 39.699219 C 173.859375 39.699219 173.035156 39.808594 172.214844 40.027344 C 171.21875 40.292969 170.316406 40.867188 169.585938 41.476562 C 170.25 41.070312 171.070312 40.710938 172.058594 40.515625 C 172.730469 40.371094 173.410156 40.296875 174.074219 40.296875 C 178.347656 40.296875 181.765625 43.242188 185.070312 46.089844 C 185.367188 46.34375 185.660156 46.597656 185.953125 46.84375 L 186.046875 46.925781 L 185.957031 47.011719 C 185.441406 47.496094 184.855469 47.742188 184.21875 47.742188 " fill-opacity="1" fill-rule="nonzero"/></g><g clip-path="url(#85a2364489)"><path fill="#ffffff" d="M 39.203125 47.742188 C 40.007812 47.742188 40.863281 47.339844 41.675781 46.582031 C 43.945312 44.511719 47.015625 42.132812 50.578125 42.132812 C 50.902344 42.132812 51.230469 42.152344 51.554688 42.1875 C 51.570312 42.191406 53.273438 42.363281 55.128906 43.296875 C 55.441406 43.453125 55.703125 43.695312 55.882812 44 L 56.066406 43.636719 C 57.269531 41.210938 56.652344 38.164062 54.28125 34.828125 C 52.492188 32.308594 50.3125 30.484375 50.292969 30.46875 C 44.535156 25.609375 40.074219 24.953125 36.46875 24.953125 C 34.589844 24.953125 32.761719 25.160156 30.828125 25.378906 C 28.824219 25.609375 26.75 25.925781 24.539062 25.84375 C 14.027344 25.453125 7.898438 20.757812 7.898438 20.757812 C 12.542969 26.558594 17.144531 30.546875 19.910156 31.160156 C 21.339844 31.511719 22.753906 31.683594 24.230469 31.683594 C 27.195312 31.683594 29.894531 30.980469 32.507812 30.300781 C 35.0625 29.636719 37.476562 29.011719 40.070312 29.011719 C 43.523438 29.011719 46.6875 30.15625 50.03125 32.613281 C 52.609375 34.445312 54.113281 36.253906 54.980469 37.839844 C 53.207031 35.144531 50.324219 33.316406 50.285156 33.292969 C 47.261719 31.222656 44.308594 30.214844 41.261719 30.214844 C 38.414062 30.214844 35.832031 31.042969 33.101562 31.917969 C 30.335938 32.804688 27.476562 33.722656 24.285156 33.722656 C 24.285156 33.722656 24.285156 33.722656 24.28125 33.722656 C 22.800781 33.722656 21.371094 33.53125 19.910156 33.136719 L 19.574219 33.042969 L 19.796875 33.316406 C 22.4375 36.515625 25.199219 38.425781 27.179688 38.425781 C 27.363281 38.425781 27.539062 38.40625 27.707031 38.375 C 30.148438 37.96875 32.460938 36.933594 34.703125 35.933594 C 37.566406 34.652344 40.53125 33.328125 43.761719 33.328125 C 46.015625 33.328125 48.199219 33.957031 50.449219 35.253906 C 52.230469 36.320312 53.4375 37.476562 54.25 38.597656 C 52.695312 36.804688 50.699219 35.878906 50.671875 35.863281 C 48.636719 34.792969 46.664062 34.269531 44.648438 34.269531 C 41.203125 34.269531 38.144531 35.828125 35.183594 37.332031 C 32.761719 38.5625 30.257812 39.839844 27.578125 40.234375 L 27.375 40.265625 L 27.511719 40.417969 C 28.964844 42.085938 30.542969 43.007812 31.953125 43.007812 C 32.46875 43.007812 32.953125 42.882812 33.382812 42.632812 C 34.425781 42.070312 35.484375 41.40625 36.511719 40.765625 C 39.617188 38.820312 42.832031 36.8125 46.53125 36.8125 C 47.976562 36.8125 49.386719 37.109375 50.835938 37.722656 C 52.316406 38.472656 53.363281 39.355469 54.097656 40.199219 C 52.691406 38.90625 51.058594 38.277344 51.035156 38.269531 C 49.769531 37.796875 48.496094 37.558594 47.246094 37.558594 C 43.351562 37.558594 40.082031 39.804688 36.917969 41.976562 C 35.617188 42.871094 34.386719 43.714844 33.109375 44.417969 L 32.984375 44.488281 L 33.082031 44.59375 C 33.917969 45.476562 34.863281 45.941406 35.8125 45.941406 C 36.53125 45.941406 37.242188 45.667969 37.867188 45.144531 L 37.984375 45.050781 C 41.261719 42.421875 44.648438 39.699219 48.75 39.699219 C 49.5625 39.699219 50.390625 39.808594 51.207031 40.027344 C 52.207031 40.292969 53.105469 40.867188 53.835938 41.476562 C 53.171875 41.070312 52.351562 40.710938 51.363281 40.515625 C 50.695312 40.371094 50.015625 40.296875 49.347656 40.296875 C 45.074219 40.296875 41.65625 43.242188 38.351562 46.089844 C 38.058594 46.34375 37.761719 46.597656 37.472656 46.84375 L 37.375 46.925781 L 37.46875 47.011719 C 37.980469 47.496094 38.566406 47.742188 39.203125 47.742188 " fill-opacity="1" fill-rule="nonzero"/></g></svg>