<svg xmlns="http://www.w3.org/2000/svg" xmlns:xlink="http://www.w3.org/1999/xlink" width="300" zoomAndPan="magnify" viewBox="0 0 224.87999 74.999997" height="100" preserveAspectRatio="xMidYMid meet" version="1.0"><defs><g/><clipPath id="a52b0d4e5d"><path d="M 158 21.984375 L 204.351562 21.984375 L 204.351562 46.722656 L 158 46.722656 Z M 158 21.984375 " clip-rule="nonzero"/></clipPath><clipPath id="21c3eeb10e"><path d="M 7.496094 21.984375 L 53.820312 21.984375 L 53.820312 46.722656 L 7.496094 46.722656 Z M 7.496094 21.984375 " clip-rule="nonzero"/></clipPath></defs><g fill="#44423e" fill-opacity="1"><g transform="translate(56.48793, 37.515553)"><g><path d="M 13.46875 -14.046875 L 8.234375 -14.046875 L 8.234375 0 L 5.4375 0 L 5.4375 -14.046875 L 0.21875 -14.046875 L 0.21875 -16.546875 L 13.46875 -16.546875 Z M 13.46875 -14.046875 "/></g></g></g><g fill="#44423e" fill-opacity="1"><g transform="translate(75.37573, 37.515553)"><g><path d="M 12.859375 -3.734375 L 4.515625 -3.734375 L 2.9375 0 L 0.03125 0 L 7.328125 -16.546875 L 10.1875 -16.546875 L 17.421875 0 L 14.4375 0 Z M 11.796875 -6.21875 L 8.671875 -13.5625 L 5.5625 -6.21875 Z M 11.796875 -6.21875 "/></g></g></g><g fill="#44423e" fill-opacity="1"><g transform="translate(98.022036, 37.515553)"><g><path d="M 4.96875 -2.53125 L 12.125 -2.53125 L 12.125 0 L 2.171875 0 L 2.171875 -16.546875 L 4.96875 -16.546875 Z M 4.96875 -2.53125 "/></g></g></g><g fill="#44423e" fill-opacity="1"><g transform="translate(115.846107, 37.515553)"><g><path d="M 14 -14.046875 L 4.96875 -14.046875 L 4.96875 -9.578125 L 13.046875 -9.578125 L 13.046875 -7.0625 L 4.96875 -7.0625 L 4.96875 -2.5 L 14.28125 -2.5 L 14.28125 0 L 2.171875 0 L 2.171875 -16.546875 L 14 -16.546875 Z M 14 -14.046875 "/></g></g></g><g fill="#44423e" fill-opacity="1"><g transform="translate(136.554065, 37.515553)"><g><path d="M 7.609375 -16.671875 C 9.753906 -16.671875 11.6875 -16.101562 13.40625 -14.96875 L 12.25 -12.5 C 10.5625 -13.53125 8.945312 -14.046875 7.40625 -14.046875 C 6.5625 -14.046875 5.898438 -13.894531 5.421875 -13.59375 C 4.941406 -13.289062 4.703125 -12.863281 4.703125 -12.3125 C 4.703125 -11.757812 4.921875 -11.289062 5.359375 -10.90625 C 5.804688 -10.519531 6.359375 -10.234375 7.015625 -10.046875 C 7.679688 -9.867188 8.398438 -9.640625 9.171875 -9.359375 C 9.941406 -9.085938 10.65625 -8.796875 11.3125 -8.484375 C 11.976562 -8.179688 12.523438 -7.703125 12.953125 -7.046875 C 13.390625 -6.398438 13.609375 -5.613281 13.609375 -4.6875 C 13.609375 -3.226562 13.03125 -2.066406 11.875 -1.203125 C 10.71875 -0.335938 9.21875 0.09375 7.375 0.09375 C 6.113281 0.09375 4.890625 -0.140625 3.703125 -0.609375 C 2.523438 -1.085938 1.492188 -1.726562 0.609375 -2.53125 L 1.828125 -4.9375 C 2.660156 -4.164062 3.578125 -3.570312 4.578125 -3.15625 C 5.578125 -2.738281 6.523438 -2.53125 7.421875 -2.53125 C 8.398438 -2.53125 9.160156 -2.707031 9.703125 -3.0625 C 10.242188 -3.414062 10.515625 -3.90625 10.515625 -4.53125 C 10.515625 -5.101562 10.296875 -5.582031 9.859375 -5.96875 C 9.421875 -6.351562 8.867188 -6.632812 8.203125 -6.8125 C 7.535156 -7 6.816406 -7.222656 6.046875 -7.484375 C 5.273438 -7.742188 4.554688 -8.019531 3.890625 -8.3125 C 3.234375 -8.601562 2.679688 -9.070312 2.234375 -9.71875 C 1.796875 -10.363281 1.578125 -11.144531 1.578125 -12.0625 C 1.578125 -13.457031 2.128906 -14.570312 3.234375 -15.40625 C 4.335938 -16.25 5.796875 -16.671875 7.609375 -16.671875 Z M 7.609375 -16.671875 "/></g></g></g><g fill="#44423e" fill-opacity="1"><g transform="translate(76.81843, 58.452364)"><g><path d="M 3.171875 -1.609375 L 7.734375 -1.609375 L 7.734375 0 L 1.390625 0 L 1.390625 -10.546875 L 3.171875 -10.546875 Z M 3.171875 -1.609375 "/></g></g></g><g fill="#44423e" fill-opacity="1"><g transform="translate(88.183822, 58.452364)"><g><path d="M 3.171875 0 L 1.390625 0 L 1.390625 -10.546875 L 3.171875 -10.546875 Z M 3.171875 0 "/></g></g></g><g fill="#44423e" fill-opacity="1"><g transform="translate(96.052361, 58.452364)"><g><path d="M 12.546875 0 L 10.90625 0 L 10.890625 -7.890625 L 7.546875 -1.09375 L 6.390625 -1.09375 L 3.0625 -7.890625 L 3.0625 0 L 1.390625 0 L 1.390625 -10.546875 L 3.5 -10.546875 L 6.984375 -3.546875 L 10.453125 -10.546875 L 12.546875 -10.546875 Z M 12.546875 0 "/></g></g></g><g fill="#44423e" fill-opacity="1"><g transform="translate(113.311151, 58.452364)"><g><path d="M 8.203125 -2.375 L 2.875 -2.375 L 1.875 0 L 0.015625 0 L 4.671875 -10.546875 L 6.5 -10.546875 L 11.109375 0 L 9.21875 0 Z M 7.53125 -3.96875 L 5.53125 -8.65625 L 3.546875 -3.96875 Z M 7.53125 -3.96875 "/></g></g></g><path stroke-linecap="butt" transform="matrix(2.241275, 0, 0, 2.439376, 56.48793, 42.504795)" fill="none" stroke-linejoin="miter" d="M 0.000156826 -0.00036444 L 40.473078 -0.00036444 " stroke="#44423e" stroke-width="1" stroke-opacity="1" stroke-miterlimit="4"/><g clip-path="url(#a52b0d4e5d)"><path fill="#44423e" d="M 174.898438 46.71875 C 174.140625 46.71875 173.339844 46.351562 172.574219 45.65625 C 170.441406 43.757812 167.5625 41.578125 164.214844 41.578125 C 163.910156 41.578125 163.601562 41.597656 163.300781 41.628906 C 163.28125 41.632812 161.683594 41.789062 159.941406 42.644531 C 159.648438 42.789062 159.402344 43.011719 159.230469 43.289062 L 159.0625 42.957031 C 157.929688 40.734375 158.507812 37.941406 160.738281 34.882812 C 162.417969 32.574219 164.464844 30.902344 164.484375 30.886719 C 169.890625 26.429688 174.078125 25.832031 177.464844 25.832031 C 179.230469 25.832031 180.945312 26.019531 182.761719 26.222656 C 184.644531 26.433594 186.59375 26.722656 188.667969 26.648438 C 198.539062 26.289062 204.292969 21.984375 204.292969 21.984375 C 199.933594 27.300781 195.609375 30.957031 193.015625 31.523438 C 191.671875 31.84375 190.34375 32 188.957031 32 C 186.175781 32 183.636719 31.355469 181.183594 30.734375 C 178.785156 30.125 176.519531 29.550781 174.082031 29.550781 C 170.839844 29.550781 167.867188 30.597656 164.726562 32.851562 C 162.308594 34.535156 160.894531 36.191406 160.082031 37.644531 C 161.746094 35.171875 164.453125 33.496094 164.488281 33.476562 C 167.328125 31.578125 170.101562 30.65625 172.964844 30.65625 C 175.636719 30.65625 178.0625 31.414062 180.628906 32.21875 C 183.222656 33.03125 185.910156 33.871094 188.90625 33.871094 C 188.90625 33.871094 188.90625 33.871094 188.910156 33.871094 C 190.300781 33.871094 191.644531 33.695312 193.015625 33.332031 L 193.332031 33.25 L 193.121094 33.496094 C 190.640625 36.429688 188.050781 38.179688 186.1875 38.179688 C 186.015625 38.179688 185.851562 38.164062 185.695312 38.132812 C 183.402344 37.761719 181.226562 36.8125 179.125 35.894531 C 176.433594 34.722656 173.652344 33.507812 170.613281 33.507812 C 168.5 33.507812 166.449219 34.085938 164.335938 35.273438 C 162.664062 36.25 161.53125 37.3125 160.765625 38.339844 C 162.226562 36.695312 164.097656 35.84375 164.128906 35.832031 C 166.039062 34.851562 167.890625 34.371094 169.785156 34.371094 C 173.015625 34.371094 175.890625 35.796875 178.671875 37.179688 C 180.945312 38.308594 183.296875 39.476562 185.816406 39.839844 L 186.003906 39.867188 L 185.878906 40.007812 C 184.511719 41.539062 183.03125 42.378906 181.703125 42.378906 C 181.21875 42.378906 180.769531 42.265625 180.363281 42.039062 C 179.382812 41.519531 178.386719 40.914062 177.425781 40.324219 C 174.507812 38.542969 171.492188 36.703125 168.015625 36.703125 C 166.65625 36.703125 165.335938 36.976562 163.972656 37.535156 C 162.582031 38.222656 161.597656 39.03125 160.910156 39.804688 C 162.230469 38.621094 163.761719 38.046875 163.785156 38.035156 C 164.972656 37.605469 166.171875 37.386719 167.34375 37.386719 C 171 37.386719 174.070312 39.445312 177.042969 41.4375 C 178.265625 42.257812 179.421875 43.03125 180.617188 43.671875 L 180.738281 43.738281 L 180.644531 43.835938 C 179.859375 44.644531 178.972656 45.070312 178.082031 45.070312 C 177.40625 45.070312 176.738281 44.820312 176.148438 44.339844 L 176.042969 44.253906 C 172.964844 41.84375 169.78125 39.347656 165.933594 39.347656 C 165.167969 39.347656 164.390625 39.449219 163.625 39.648438 C 162.6875 39.890625 161.839844 40.417969 161.152344 40.976562 C 161.777344 40.605469 162.550781 40.277344 163.476562 40.097656 C 164.105469 39.964844 164.746094 39.894531 165.371094 39.894531 C 169.382812 39.894531 172.59375 42.59375 175.695312 45.207031 C 175.972656 45.4375 176.25 45.671875 176.523438 45.898438 L 176.613281 45.972656 L 176.527344 46.050781 C 176.042969 46.496094 175.496094 46.71875 174.898438 46.71875 " fill-opacity="1" fill-rule="nonzero"/></g><g clip-path="url(#21c3eeb10e)"><path fill="#44423e" d="M 36.796875 46.71875 C 37.554688 46.71875 38.355469 46.351562 39.117188 45.65625 C 41.253906 43.757812 44.132812 41.578125 47.480469 41.578125 C 47.785156 41.578125 48.089844 41.597656 48.394531 41.628906 C 48.414062 41.632812 50.011719 41.789062 51.753906 42.644531 C 52.046875 42.789062 52.292969 43.011719 52.460938 43.289062 L 52.632812 42.957031 C 53.765625 40.734375 53.183594 37.941406 50.957031 34.882812 C 49.277344 32.574219 47.230469 30.902344 47.210938 30.886719 C 41.804688 26.429688 37.613281 25.832031 34.230469 25.832031 C 32.464844 25.832031 30.75 26.019531 28.933594 26.222656 C 27.050781 26.433594 25.101562 26.722656 23.027344 26.648438 C 13.15625 26.289062 7.398438 21.984375 7.398438 21.984375 C 11.761719 27.300781 16.082031 30.957031 18.679688 31.523438 C 20.023438 31.84375 21.351562 32 22.738281 32 C 25.519531 32 28.054688 31.355469 30.507812 30.734375 C 32.910156 30.125 35.175781 29.550781 37.613281 29.550781 C 40.855469 29.550781 43.828125 30.597656 46.964844 32.851562 C 49.386719 34.535156 50.800781 36.191406 51.613281 37.644531 C 49.949219 35.171875 47.242188 33.496094 47.207031 33.476562 C 44.367188 31.578125 41.589844 30.65625 38.730469 30.65625 C 36.054688 30.65625 33.632812 31.414062 31.066406 32.21875 C 28.46875 33.03125 25.785156 33.871094 22.785156 33.871094 C 21.394531 33.871094 20.050781 33.695312 18.679688 33.332031 L 18.363281 33.25 L 18.574219 33.496094 C 21.054688 36.429688 23.644531 38.179688 25.507812 38.179688 C 25.675781 38.179688 25.84375 38.164062 26 38.132812 C 28.292969 37.761719 30.46875 36.8125 32.570312 35.894531 C 35.261719 34.722656 38.042969 33.507812 41.078125 33.507812 C 43.191406 33.507812 45.246094 34.085938 47.355469 35.273438 C 49.03125 36.25 50.164062 37.3125 50.929688 38.339844 C 49.464844 36.695312 47.59375 35.84375 47.566406 35.832031 C 45.65625 34.851562 43.804688 34.371094 41.910156 34.371094 C 38.675781 34.371094 35.800781 35.796875 33.023438 37.179688 C 30.75 38.308594 28.398438 39.476562 25.878906 39.839844 L 25.691406 39.867188 L 25.816406 40.007812 C 27.183594 41.539062 28.664062 42.378906 29.988281 42.378906 C 30.472656 42.378906 30.925781 42.265625 31.332031 42.039062 C 32.3125 41.519531 33.308594 40.914062 34.269531 40.324219 C 37.1875 38.542969 40.203125 36.703125 43.679688 36.703125 C 45.035156 36.703125 46.359375 36.976562 47.722656 37.535156 C 49.113281 38.222656 50.09375 39.03125 50.785156 39.804688 C 49.464844 38.621094 47.929688 38.046875 47.90625 38.035156 C 46.71875 37.605469 45.523438 37.386719 44.347656 37.386719 C 40.695312 37.386719 37.621094 39.445312 34.652344 41.4375 C 33.429688 42.257812 32.273438 43.03125 31.074219 43.671875 L 30.957031 43.738281 L 31.050781 43.835938 C 31.835938 44.644531 32.722656 45.070312 33.613281 45.070312 C 34.289062 45.070312 34.957031 44.820312 35.542969 44.339844 L 35.652344 44.253906 C 38.730469 41.84375 41.910156 39.347656 45.761719 39.347656 C 46.523438 39.347656 47.300781 39.449219 48.070312 39.648438 C 49.007812 39.890625 49.851562 40.417969 50.539062 40.976562 C 49.917969 40.605469 49.144531 40.277344 48.21875 40.097656 C 47.585938 39.964844 46.949219 39.894531 46.324219 39.894531 C 42.3125 39.894531 39.101562 42.59375 35.996094 45.207031 C 35.71875 45.4375 35.445312 45.671875 35.171875 45.898438 L 35.082031 45.972656 L 35.167969 46.050781 C 35.652344 46.496094 36.199219 46.71875 36.796875 46.71875 " fill-opacity="1" fill-rule="nonzero"/></g></svg>